<svg width="607" height="37" viewBox="0 0 607 37" fill="none" xmlns="http://www.w3.org/2000/svg">
<path d="M1.94 18.84C3.22 17.7733 4.24 16.8867 5 16.18C5.76 15.46 6.39333 14.7133 6.9 13.94C7.40667 13.1667 7.66 12.4067 7.66 11.66C7.66 10.98 7.5 10.4467 7.18 10.06C6.86 9.67333 6.36667 9.48 5.7 9.48C5.03333 9.48 4.52 9.70667 4.16 10.16C3.8 10.6 3.61333 11.2067 3.6 11.98L0.880001 11.98C0.933334 10.38 1.40667 9.16667 2.3 8.34C3.20667 7.51333 4.35333 7.1 5.74 7.1C7.26 7.1 8.42667 7.50667 9.24 8.32C10.0533 9.12 10.46 10.18 10.46 11.5C10.46 12.54 10.18 13.5333 9.62 14.48C9.06 15.4267 8.42 16.2533 7.7 16.96C6.98 17.6533 6.04 18.4933 4.88 19.48L10.78 19.48L10.78 21.8L0.900001 21.8L0.900001 19.72L1.94 18.84ZM16.5444 14.52C16.5444 12.2133 16.9577 10.4067 17.7844 9.1C18.6244 7.79333 20.011 7.14 21.9444 7.14C23.8777 7.14 25.2577 7.79333 26.0844 9.1C26.9244 10.4067 27.3444 12.2133 27.3444 14.52C27.3444 16.84 26.9244 18.66 26.0844 19.98C25.2577 21.3 23.8777 21.96 21.9444 21.96C20.011 21.96 18.6244 21.3 17.7844 19.98C16.9577 18.66 16.5444 16.84 16.5444 14.52ZM24.5844 14.52C24.5844 13.5333 24.5177 12.7067 24.3844 12.04C24.2644 11.36 24.011 10.8067 23.6244 10.38C23.251 9.95333 22.691 9.74 21.9444 9.74C21.1977 9.74 20.631 9.95333 20.2444 10.38C19.871 10.8067 19.6177 11.36 19.4844 12.04C19.3644 12.7067 19.3044 13.5333 19.3044 14.52C19.3044 15.5333 19.3644 16.3867 19.4844 17.08C19.6044 17.76 19.8577 18.3133 20.2444 18.74C20.631 19.1533 21.1977 19.36 21.9444 19.36C22.691 19.36 23.2577 19.1533 23.6444 18.74C24.031 18.3133 24.2844 17.76 24.4044 17.08C24.5244 16.3867 24.5844 15.5333 24.5844 14.52ZM33.1341 10L33.1341 7.42L37.9541 7.42L37.9541 22L35.0741 22L35.0741 10L33.1341 10ZM47.9602 17.9C48.0668 18.4867 48.3068 18.94 48.6802 19.26C49.0668 19.5667 49.5802 19.72 50.2202 19.72C51.0468 19.72 51.6468 19.38 52.0202 18.7C52.3935 18.0067 52.5802 16.8467 52.5802 15.22C52.2735 15.6467 51.8402 15.98 51.2802 16.22C50.7335 16.46 50.1402 16.58 49.5002 16.58C48.6468 16.58 47.8735 16.4067 47.1802 16.06C46.5002 15.7 45.9602 15.1733 45.5602 14.48C45.1602 13.7733 44.9602 12.92 44.9602 11.92C44.9602 10.44 45.4002 9.26666 46.2802 8.4C47.1602 7.52 48.3602 7.08 49.8802 7.08C51.7735 7.08 53.1068 7.68666 53.8802 8.9C54.6668 10.1133 55.0602 11.94 55.0602 14.38C55.0602 16.1133 54.9068 17.5333 54.6002 18.64C54.3068 19.7467 53.7935 20.5867 53.0602 21.16C52.3402 21.7333 51.3535 22.02 50.1002 22.02C49.1135 22.02 48.2735 21.8333 47.5802 21.46C46.8868 21.0733 46.3535 20.5733 45.9802 19.96C45.6202 19.3333 45.4135 18.6467 45.3602 17.9L47.9602 17.9ZM50.0802 14.3C50.7735 14.3 51.3202 14.0867 51.7202 13.66C52.1202 13.2333 52.3202 12.66 52.3202 11.94C52.3202 11.1533 52.1068 10.5467 51.6802 10.12C51.2668 9.68 50.7002 9.46 49.9802 9.46C49.2602 9.46 48.6868 9.68666 48.2602 10.14C47.8468 10.58 47.6402 11.1667 47.6402 11.9C47.6402 12.6067 47.8402 13.1867 48.2402 13.64C48.6535 14.08 49.2668 14.3 50.0802 14.3Z" fill="#181E41" fill-opacity="0.3"/>
<path d="M548.902 25.3249C550.182 24.2582 551.202 23.3715 551.962 22.6649C552.722 21.9449 553.355 21.1982 553.862 20.4249C554.368 19.6515 554.622 18.8915 554.622 18.1449C554.622 17.4649 554.462 16.9315 554.142 16.5449C553.822 16.1582 553.328 15.9649 552.662 15.9649C551.995 15.9649 551.482 16.1915 551.122 16.6449C550.762 17.0849 550.575 17.6915 550.562 18.4649L547.842 18.4649C547.895 16.8649 548.368 15.6515 549.262 14.8249C550.168 13.9982 551.315 13.5849 552.702 13.5849C554.222 13.5849 555.388 13.9915 556.202 14.8049C557.015 15.6049 557.422 16.6649 557.422 17.9849C557.422 19.0249 557.142 20.0182 556.582 20.9649C556.022 21.9115 555.382 22.7382 554.662 23.4449C553.942 24.1382 553.002 24.9782 551.842 25.9649L557.742 25.9649L557.742 28.2849L547.862 28.2849L547.862 26.2049L548.902 25.3249ZM563.506 21.0049C563.506 18.6982 563.92 16.8915 564.746 15.5849C565.586 14.2782 566.973 13.6249 568.906 13.6249C570.84 13.6249 572.22 14.2782 573.046 15.5849C573.886 16.8915 574.306 18.6982 574.306 21.0049C574.306 23.3249 573.886 25.1449 573.046 26.4649C572.22 27.7849 570.84 28.4449 568.906 28.4449C566.973 28.4449 565.586 27.7849 564.746 26.4649C563.92 25.1449 563.506 23.3249 563.506 21.0049ZM571.546 21.0049C571.546 20.0182 571.48 19.1915 571.346 18.5249C571.226 17.8449 570.973 17.2915 570.586 16.8649C570.213 16.4382 569.653 16.2249 568.906 16.2249C568.16 16.2249 567.593 16.4382 567.206 16.8649C566.833 17.2915 566.58 17.8449 566.446 18.5249C566.326 19.1915 566.266 20.0182 566.266 21.0049C566.266 22.0182 566.326 22.8715 566.446 23.5649C566.566 24.2449 566.82 24.7982 567.206 25.2249C567.593 25.6382 568.16 25.8449 568.906 25.8449C569.653 25.8449 570.22 25.6382 570.606 25.2249C570.993 24.7982 571.246 24.2449 571.366 23.5649C571.486 22.8715 571.546 22.0182 571.546 21.0049ZM581.316 25.3249C582.596 24.2582 583.616 23.3715 584.376 22.6649C585.136 21.9449 585.769 21.1982 586.276 20.4249C586.783 19.6515 587.036 18.8915 587.036 18.1449C587.036 17.4649 586.876 16.9315 586.556 16.5449C586.236 16.1582 585.743 15.9649 585.076 15.9649C584.409 15.9649 583.896 16.1915 583.536 16.6449C583.176 17.0849 582.989 17.6915 582.976 18.4649L580.256 18.4649C580.309 16.8649 580.783 15.6515 581.676 14.8249C582.583 13.9982 583.729 13.5849 585.116 13.5849C586.636 13.5849 587.803 13.9915 588.616 14.8049C589.429 15.6049 589.836 16.6649 589.836 17.9849C589.836 19.0249 589.556 20.0182 588.996 20.9649C588.436 21.9115 587.796 22.7382 587.076 23.4449C586.356 24.1382 585.416 24.9782 584.256 25.9649L590.156 25.9649L590.156 28.2849L580.276 28.2849L580.276 26.2049L581.316 25.3249ZM596.8 25.3249C598.08 24.2582 599.1 23.3715 599.86 22.6649C600.62 21.9449 601.254 21.1982 601.76 20.4249C602.267 19.6515 602.52 18.8915 602.52 18.1449C602.52 17.4649 602.36 16.9315 602.04 16.5449C601.72 16.1582 601.227 15.9649 600.56 15.9649C599.894 15.9649 599.38 16.1915 599.02 16.6449C598.66 17.0849 598.474 17.6915 598.46 18.4649L595.74 18.4649C595.794 16.8649 596.267 15.6515 597.16 14.8249C598.067 13.9982 599.214 13.5849 600.6 13.5849C602.12 13.5849 603.287 13.9915 604.1 14.8049C604.914 15.6049 605.32 16.6649 605.32 17.9849C605.32 19.0249 605.04 20.0182 604.48 20.9649C603.92 21.9115 603.28 22.7382 602.56 23.4449C601.84 24.1382 600.9 24.9782 599.74 25.9649L605.64 25.9649L605.64 28.2849L595.76 28.2849L595.76 26.2049L596.8 25.3249Z" fill="#181E41" fill-opacity="0.5"/>
<line x1="76.9812" y1="17.7334" x2="526.981" y2="17.7334" stroke="#181E41"/>
</svg>
