<svg width="607" height="37" viewBox="0 0 607 37" fill="none" xmlns="http://www.w3.org/2000/svg">
<path d="M2.66 22L5.54 22L5.54 7.42L0.72 7.42L0.72 10L2.66 10L2.66 22ZM12.9461 17.9C13.1061 20.04 14.5861 22.02 17.6861 22.02C21.5461 22.02 22.6461 19.34 22.6461 14.38C22.6461 9.76 21.4261 7.08 17.4661 7.08C14.3861 7.08 12.5461 9 12.5461 11.92C12.5461 15 14.5661 16.58 17.0861 16.58C18.3661 16.58 19.5461 16.08 20.1661 15.22C20.1661 18.5 19.4461 19.72 17.8061 19.72C16.5061 19.72 15.7661 19.06 15.5461 17.9L12.9461 17.9ZM17.6661 14.3C15.9661 14.3 15.2261 13.22 15.2261 11.9C15.2261 10.44 16.1061 9.46 17.5661 9.46C18.9861 9.46 19.9061 10.34 19.9061 11.94C19.9061 13.36 19.0661 14.3 17.6661 14.3ZM38.9856 11.06C38.7656 9 37.3656 7.08 34.3856 7.08C30.6856 7.08 29.1456 9.72 29.1456 14.48C29.1456 19 30.2256 22.04 34.5456 22.04C37.6656 22.04 39.4056 19.98 39.4056 17.16C39.4056 14.12 37.5856 12.4 34.9856 12.4C33.5656 12.4 32.2456 13 31.5856 14.1C31.6256 10.74 32.4656 9.38 34.2856 9.38C35.5456 9.38 36.1256 9.98 36.3856 11.06L38.9856 11.06ZM34.3456 14.7C35.9656 14.7 36.7456 15.72 36.7456 17.22C36.7456 18.72 35.8456 19.66 34.4056 19.66C32.7656 19.66 31.8456 18.68 31.8456 17.12C31.8456 15.46 33.0456 14.7 34.3456 14.7ZM47.2186 22L50.0986 22L50.0986 7.42L45.2786 7.42L45.2786 10L47.2186 10L47.2186 22Z" fill="#181E41" fill-opacity="0.3"/>
<path d="M548.902 25.3249C550.182 24.2582 551.202 23.3715 551.962 22.6649C552.722 21.9449 553.355 21.1982 553.862 20.4249C554.369 19.6515 554.622 18.8915 554.622 18.1449C554.622 17.4649 554.462 16.9315 554.142 16.5449C553.822 16.1582 553.329 15.9649 552.662 15.9649C551.995 15.9649 551.482 16.1915 551.122 16.6449C550.762 17.0849 550.575 17.6915 550.562 18.4649L547.842 18.4649C547.895 16.8649 548.369 15.6515 549.262 14.8249C550.169 13.9982 551.315 13.5849 552.702 13.5849C554.222 13.5849 555.389 13.9915 556.202 14.8049C557.015 15.6049 557.422 16.6649 557.422 17.9849C557.422 19.0249 557.142 20.0182 556.582 20.9649C556.022 21.9115 555.382 22.7382 554.662 23.4449C553.942 24.1382 553.002 24.9782 551.842 25.9649L557.742 25.9649L557.742 28.2849L547.862 28.2849L547.862 26.2049L548.902 25.3249ZM563.506 21.0049C563.506 18.6982 563.92 16.8915 564.746 15.5849C565.586 14.2782 566.973 13.6249 568.906 13.6249C570.84 13.6249 572.22 14.2782 573.046 15.5849C573.886 16.8915 574.306 18.6982 574.306 21.0049C574.306 23.3249 573.886 25.1449 573.046 26.4649C572.22 27.7849 570.84 28.4449 568.906 28.4449C566.973 28.4449 565.586 27.7849 564.746 26.4649C563.92 25.1449 563.506 23.3249 563.506 21.0049ZM571.546 21.0049C571.546 20.0182 571.48 19.1915 571.346 18.5249C571.226 17.8449 570.973 17.2915 570.586 16.8649C570.213 16.4382 569.653 16.2249 568.906 16.2249C568.16 16.2249 567.593 16.4382 567.206 16.8649C566.833 17.2915 566.58 17.8449 566.446 18.5249C566.326 19.1915 566.266 20.0182 566.266 21.0049C566.266 22.0182 566.326 22.8715 566.446 23.5649C566.566 24.2449 566.82 24.7982 567.206 25.2249C567.593 25.6382 568.16 25.8449 568.906 25.8449C569.653 25.8449 570.22 25.6382 570.606 25.2249C570.993 24.7982 571.246 24.2449 571.366 23.5649C571.486 22.8715 571.546 22.0182 571.546 21.0049ZM581.316 25.3249C582.596 24.2582 583.616 23.3715 584.376 22.6649C585.136 21.9449 585.769 21.1982 586.276 20.4249C586.783 19.6515 587.036 18.8915 587.036 18.1449C587.036 17.4649 586.876 16.9315 586.556 16.5449C586.236 16.1582 585.743 15.9649 585.076 15.9649C584.409 15.9649 583.896 16.1915 583.536 16.6449C583.176 17.0849 582.989 17.6915 582.976 18.4649L580.256 18.4649C580.309 16.8649 580.783 15.6515 581.676 14.8249C582.583 13.9982 583.729 13.5849 585.116 13.5849C586.636 13.5849 587.803 13.9915 588.616 14.8049C589.429 15.6049 589.836 16.6649 589.836 17.9849C589.836 19.0249 589.556 20.0182 588.996 20.9649C588.436 21.9115 587.796 22.7382 587.076 23.4449C586.356 24.1382 585.416 24.9782 584.256 25.9649L590.156 25.9649L590.156 28.2849L580.276 28.2849L580.276 26.2049L581.316 25.3249ZM596.8 25.3249C598.08 24.2582 599.1 23.3715 599.86 22.6649C600.62 21.9449 601.254 21.1982 601.76 20.4249C602.267 19.6515 602.52 18.8915 602.52 18.1449C602.52 17.4649 602.36 16.9315 602.04 16.5449C601.72 16.1582 601.227 15.9649 600.56 15.9649C599.894 15.9649 599.38 16.1915 599.02 16.6449C598.66 17.0849 598.474 17.6915 598.46 18.4649L595.74 18.4649C595.794 16.8649 596.267 15.6515 597.16 14.8249C598.067 13.9982 599.214 13.5849 600.6 13.5849C602.12 13.5849 603.287 13.9915 604.1 14.8049C604.914 15.6049 605.32 16.6649 605.32 17.9849C605.32 19.0249 605.04 20.0182 604.48 20.9649C603.92 21.9115 603.28 22.7382 602.56 23.4449C601.84 24.1382 600.9 24.9782 599.74 25.9649L605.64 25.9649L605.64 28.2849L595.76 28.2849L595.76 26.2049L596.8 25.3249Z" fill="#181E41" fill-opacity="0.5"/>
<line x1="76.981" y1="17.7336" x2="526.981" y2="17.7336" stroke="#181E41"/>
</svg>
